<svg width="250" height="149" viewBox="0 0 250 149" fill="none" xmlns="http://www.w3.org/2000/svg">
<g clip-path="url(#clip0_1_3)">
<path d="M61 0H67L70 5L76 48L77 51L87 48L119 35L127 34L143 40L171 51H173L176 34L180 5L183 0H189L191 2L195 28L198 49L199 51L209 48L244 34L249 35L250 36V43L238 53L221 66L213 73L215 77L230 89L244 100L250 105V113L248 114H242L205 99L199 98L194 133L192 146L190 149H182L179 142L173 98L167 99L130 114H120L81 98H77L71 142L68 149H60L58 146L51 98L45 99L8 114H2L0 113V105L13 94L26 84L37 75L35 71L19 58L2 45L0 43V36L3 34L9 35L49 51H51L53 42L58 6L60 1L61 0ZM122 47L106 60L92 71L90 73L91 77L109 91L122 101H128L143 89L159 77L160 73L151 65L138 55L128 47H122Z" fill="black" style="fill:black;fill-opacity:1;"/>
</g>
<defs>
<clipPath id="clip0_1_3">
<rect width="250" height="149" fill="white" style="fill:white;fill-opacity:1;"/>
</clipPath>
</defs>
</svg>
